<svg width="18" height="22" viewBox="0 0 18 22" fill="none" xmlns="http://www.w3.org/2000/svg">
<path fill-rule="evenodd" clip-rule="evenodd" d="M8.29289 17.7071C8.68342 18.0976 9.31658 18.0976 9.70711 17.7071L16.0711 11.3431C16.4616 10.9526 16.4616 10.3195 16.0711 9.92893C15.6805 9.53841 15.0474 9.53841 14.6569 9.92893L10 14.5858L10 1C10 0.447715 9.55229 0 9 0C8.44772 0 8 0.447715 8 1L8 14.5858L3.34315 9.92893C2.95262 9.53841 2.31946 9.53841 1.92893 9.92893C1.53841 10.3195 1.53841 10.9526 1.92893 11.3431L8.29289 17.7071ZM1 20C0.447715 20 0 20.4477 0 21C0 21.5523 0.447715 22 1 22L17 22C17.5523 22 18 21.5523 18 21C18 20.4477 17.5523 20 17 20L1 20Z" fill="#E0E0E0"/>
</svg>
